<mxfile host="app.diagrams.net" agent="Mozilla/5.0 (Windows NT 10.0; Win64; x64; rv:133.0) Gecko/20100101 Firefox/133.0" version="25.0.0">
  <diagram name="Strona-1" id="2N6dUaQ3R14pPfnUt4dL">
    <mxGraphModel>
      <root>
        <mxCell id="0" />
        <mxCell id="1" parent="0" />
        <mxCell id="2" value="User" style="whiteSpace=wrap;strokeWidth=2;" vertex="1" parent="1">
          <mxGeometry x="8" y="8" width="1295" height="229" as="geometry" />
        </mxCell>
        <mxCell id="3" value="Cloudflare/OVH Data Centers" style="whiteSpace=wrap;strokeWidth=2;" vertex="1" parent="1">
          <mxGeometry x="8" y="257" width="209" height="614" as="geometry" />
        </mxCell>
        <mxCell id="4" value="Web Server" style="whiteSpace=wrap;strokeWidth=2;" vertex="1" parent="1">
          <mxGeometry x="900" y="446" width="236" height="257" as="geometry" />
        </mxCell>
        <mxCell id="5" value="Firewall Rules" style="whiteSpace=wrap;strokeWidth=2;" vertex="1" parent="1">
          <mxGeometry x="466" y="426" width="383" height="296" as="geometry" />
        </mxCell>
        <mxCell id="6" value="HTTP Request" style="whiteSpace=wrap;strokeWidth=2;" vertex="1" parent="1">
          <mxGeometry x="33" y="43" width="159" height="49" as="geometry" />
        </mxCell>
        <mxCell id="7" value="Firewall Rules" style="rhombus;strokeWidth=2;whiteSpace=wrap;" vertex="1" parent="1">
          <mxGeometry x="267" y="53" width="149" height="149" as="geometry" />
        </mxCell>
        <mxCell id="8" value="Allow" style="rhombus;strokeWidth=2;whiteSpace=wrap;" vertex="1" parent="1">
          <mxGeometry x="491" y="461" width="88" height="88" as="geometry" />
        </mxCell>
        <mxCell id="9" value="Block" style="rhombus;strokeWidth=2;whiteSpace=wrap;" vertex="1" parent="1">
          <mxGeometry x="492" y="600" width="87" height="87" as="geometry" />
        </mxCell>
        <mxCell id="10" value="Pass to Web Server" style="whiteSpace=wrap;strokeWidth=2;" vertex="1" parent="1">
          <mxGeometry x="630" y="481" width="195" height="49" as="geometry" />
        </mxCell>
        <mxCell id="11" value="403 Forbidden" style="rounded=1;arcSize=40;strokeWidth=2" vertex="1" parent="1">
          <mxGeometry x="661" y="619" width="132" height="49" as="geometry" />
        </mxCell>
        <mxCell id="12" value="Return Web Page" style="whiteSpace=wrap;strokeWidth=2;" vertex="1" parent="1">
          <mxGeometry x="927" y="481" width="181" height="49" as="geometry" />
        </mxCell>
        <mxCell id="13" value="Return Error Page" style="whiteSpace=wrap;strokeWidth=2;" vertex="1" parent="1">
          <mxGeometry x="925" y="619" width="186" height="49" as="geometry" />
        </mxCell>
        <mxCell id="14" value="New York" style="rounded=1;arcSize=40;strokeWidth=2" vertex="1" parent="1">
          <mxGeometry x="65" y="292" width="96" height="49" as="geometry" />
        </mxCell>
        <mxCell id="15" value="Los Angeles" style="rounded=1;arcSize=40;strokeWidth=2" vertex="1" parent="1">
          <mxGeometry x="56" y="391" width="113" height="49" as="geometry" />
        </mxCell>
        <mxCell id="16" value="Paris" style="rounded=1;arcSize=40;strokeWidth=2" vertex="1" parent="1">
          <mxGeometry x="81" y="490" width="64" height="49" as="geometry" />
        </mxCell>
        <mxCell id="17" value="Frankfurt" style="rounded=1;arcSize=40;strokeWidth=2" vertex="1" parent="1">
          <mxGeometry x="64" y="589" width="97" height="49" as="geometry" />
        </mxCell>
        <mxCell id="18" value="Tokyo" style="rounded=1;arcSize=40;strokeWidth=2" vertex="1" parent="1">
          <mxGeometry x="77" y="688" width="70" height="49" as="geometry" />
        </mxCell>
        <mxCell id="19" value="Singapore" style="rounded=1;arcSize=40;strokeWidth=2" vertex="1" parent="1">
          <mxGeometry x="63" y="787" width="100" height="49" as="geometry" />
        </mxCell>
        <mxCell id="20" value="User" style="whiteSpace=wrap;strokeWidth=2;" vertex="1" parent="1">
          <mxGeometry x="1186" y="49" width="92" height="49" as="geometry" />
        </mxCell>
        <mxCell id="21" value="User" style="whiteSpace=wrap;strokeWidth=2;" vertex="1" parent="1">
          <mxGeometry x="1186" y="148" width="92" height="49" as="geometry" />
        </mxCell>
        <mxCell id="22" value="" style="curved=1;startArrow=none;endArrow=block;exitX=1;exitY=0.5;entryX=0;entryY=0.2;" edge="1" parent="1" source="6" target="7">
          <mxGeometry relative="1" as="geometry">
            <Array as="points">
              <mxPoint x="242" y="68" />
            </Array>
          </mxGeometry>
        </mxCell>
        <mxCell id="23" value="" style="curved=1;startArrow=none;endArrow=block;exitX=1;exitY=0.22;entryX=0.43;entryY=0;" edge="1" parent="1" source="7" target="8">
          <mxGeometry relative="1" as="geometry">
            <Array as="points">
              <mxPoint x="441" y="73" />
              <mxPoint x="466" y="73" />
            </Array>
          </mxGeometry>
        </mxCell>
        <mxCell id="24" value="" style="curved=1;startArrow=none;endArrow=block;exitX=1;exitY=0.72;entryX=0.43;entryY=0;" edge="1" parent="1" source="7" target="9">
          <mxGeometry relative="1" as="geometry">
            <Array as="points">
              <mxPoint x="441" y="172" />
              <mxPoint x="466" y="172" />
            </Array>
          </mxGeometry>
        </mxCell>
        <mxCell id="25" value="" style="curved=1;startArrow=none;endArrow=block;exitX=1.01;exitY=0.51;entryX=0;entryY=0.5;" edge="1" parent="1" source="8" target="10">
          <mxGeometry relative="1" as="geometry">
            <Array as="points" />
          </mxGeometry>
        </mxCell>
        <mxCell id="26" value="" style="curved=1;startArrow=none;endArrow=block;exitX=1;exitY=0.5;entryX=0;entryY=0.5;" edge="1" parent="1" source="9" target="11">
          <mxGeometry relative="1" as="geometry">
            <Array as="points" />
          </mxGeometry>
        </mxCell>
        <mxCell id="27" value="" style="curved=1;startArrow=none;endArrow=block;exitX=1;exitY=0.5;entryX=0;entryY=0.5;" edge="1" parent="1" source="10" target="12">
          <mxGeometry relative="1" as="geometry">
            <Array as="points" />
          </mxGeometry>
        </mxCell>
        <mxCell id="28" value="" style="curved=1;startArrow=none;endArrow=block;exitX=1;exitY=0.5;entryX=0;entryY=0.5;" edge="1" parent="1" source="11" target="13">
          <mxGeometry relative="1" as="geometry">
            <Array as="points" />
          </mxGeometry>
        </mxCell>
        <mxCell id="29" value="" style="curved=1;startArrow=none;endArrow=block;exitX=1;exitY=0.5;entryX=0;entryY=0.3;" edge="1" parent="1" source="14" target="7">
          <mxGeometry relative="1" as="geometry">
            <Array as="points">
              <mxPoint x="217" y="317" />
              <mxPoint x="242" y="88" />
            </Array>
          </mxGeometry>
        </mxCell>
        <mxCell id="30" value="" style="curved=1;startArrow=none;endArrow=block;exitX=1;exitY=0.5;entryX=0;entryY=0.4;" edge="1" parent="1" source="15" target="7">
          <mxGeometry relative="1" as="geometry">
            <Array as="points">
              <mxPoint x="217" y="416" />
              <mxPoint x="242" y="108" />
            </Array>
          </mxGeometry>
        </mxCell>
        <mxCell id="31" value="" style="curved=1;startArrow=none;endArrow=block;exitX=0.99;exitY=0.5;entryX=0;entryY=0.5;" edge="1" parent="1" source="16" target="7">
          <mxGeometry relative="1" as="geometry">
            <Array as="points">
              <mxPoint x="217" y="515" />
              <mxPoint x="242" y="128" />
            </Array>
          </mxGeometry>
        </mxCell>
        <mxCell id="32" value="" style="curved=1;startArrow=none;endArrow=block;exitX=1;exitY=0.5;entryX=0;entryY=0.67;" edge="1" parent="1" source="17" target="7">
          <mxGeometry relative="1" as="geometry">
            <Array as="points">
              <mxPoint x="217" y="614" />
              <mxPoint x="242" y="162" />
            </Array>
          </mxGeometry>
        </mxCell>
        <mxCell id="33" value="" style="curved=1;startArrow=none;endArrow=block;exitX=1.01;exitY=0.5;entryX=0;entryY=0.78;" edge="1" parent="1" source="18" target="7">
          <mxGeometry relative="1" as="geometry">
            <Array as="points">
              <mxPoint x="217" y="713" />
              <mxPoint x="242" y="182" />
            </Array>
          </mxGeometry>
        </mxCell>
        <mxCell id="34" value="" style="curved=1;startArrow=none;endArrow=block;exitX=1;exitY=0.5;entryX=0;entryY=0.88;" edge="1" parent="1" source="19" target="7">
          <mxGeometry relative="1" as="geometry">
            <Array as="points">
              <mxPoint x="217" y="812" />
              <mxPoint x="242" y="202" />
            </Array>
          </mxGeometry>
        </mxCell>
        <mxCell id="35" value="" style="curved=1;startArrow=none;endArrow=block;exitX=1;exitY=0.5;entryX=0;entryY=0.49;" edge="1" parent="1" source="12" target="20">
          <mxGeometry relative="1" as="geometry">
            <Array as="points">
              <mxPoint x="1136" y="506" />
              <mxPoint x="1161" y="73" />
            </Array>
          </mxGeometry>
        </mxCell>
        <mxCell id="36" value="" style="curved=1;startArrow=none;endArrow=block;exitX=1;exitY=0.5;entryX=0;entryY=0.49;" edge="1" parent="1" source="13" target="21">
          <mxGeometry relative="1" as="geometry">
            <Array as="points">
              <mxPoint x="1136" y="643" />
              <mxPoint x="1161" y="172" />
            </Array>
          </mxGeometry>
        </mxCell>
      </root>
    </mxGraphModel>
  </diagram>
</mxfile>
